<mxfile host="app.diagrams.net" modified="2022-04-27T21:12:44.194Z" agent="5.0 (Windows NT 10.0; Win64; x64) AppleWebKit/537.36 (KHTML, like Gecko) Chrome/100.0.4896.127 Safari/537.36" etag="1wQh2RUdEcMNokqykS9j" version="17.4.6" type="github">
  <diagram id="auwL0afb7sr_rP9Wbwnw" name="Page-1">
    <mxGraphModel dx="2029" dy="1100" grid="1" gridSize="10" guides="1" tooltips="1" connect="1" arrows="1" fold="1" page="1" pageScale="1" pageWidth="10000" pageHeight="10000" math="0" shadow="0">
      <root>
        <mxCell id="0" />
        <mxCell id="1" parent="0" />
      </root>
    </mxGraphModel>
  </diagram>
</mxfile>
